<svg width="35" height="35" viewBox="0 0 35 35" fill="none" xmlns="http://www.w3.org/2000/svg">
<path d="M12.8733 11.0196C12.8733 12.0391 12.2246 12.8732 11.0197 12.8732C9.90748 12.8732 9.16602 12.0391 9.16602 11.1122C9.16602 10.0927 9.90748 9.16589 11.0197 9.16589C12.1319 9.16589 12.8733 10 12.8733 11.0196Z" fill="black"/>
<path d="M12.8734 13.7952H9.1709V25.8294H12.8734V13.7952Z" fill="black"/>
<path d="M21.7567 13.9806C19.8104 13.9806 18.7031 15.0928 18.2396 15.8342H18.147L17.9616 14.2586H14.6299C14.6299 15.2782 14.7226 16.4782 14.7226 17.8684V25.8294H18.425V19.2586C18.425 18.8879 18.425 18.6099 18.5177 18.3318C18.7957 17.683 19.2592 16.8489 20.2787 16.8489C21.5762 16.8489 22.1323 17.9611 22.1323 19.4391V25.8294H25.8348V18.9806C25.8299 15.5562 24.0738 13.9806 21.7567 13.9806Z" fill="black"/>
<path d="M7.15122 34.5H27.8488C31.5203 34.5 34.5 31.5198 34.5 27.8439V7.15122C34.5 3.4797 31.5198 0.5 27.8439 0.5H7.15122C3.47995 0.5 0.5 3.47995 0.5 7.15122V27.8488C0.5 31.52 3.47995 34.5 7.15122 34.5Z" stroke="black" stroke-miterlimit="10" stroke-linecap="round" stroke-linejoin="round"/>
</svg>
