<svg width="35" height="35" viewBox="0 0 35 35" fill="none" xmlns="http://www.w3.org/2000/svg">
<path d="M7.15214 34.5H27.8479C31.5248 34.5 34.5 31.5194 34.5 27.8479V7.15213C34.5 3.48062 31.5248 0.5 27.8479 0.5H7.15214C3.48063 0.5 0.5 3.47522 0.5 7.15213V27.8479C0.5 31.5194 3.47523 34.5 7.15214 34.5Z" stroke="white" stroke-miterlimit="10" stroke-linecap="round" stroke-linejoin="round"/>
<path d="M21.1735 10.3672H23.0128V6.36657L20.2466 6.36169C16.324 6.36169 14.4652 8.69374 14.4652 12.0162V15.163H11.3965V18.9636H14.4652V28.6284H19.0708V18.9636H22.1395L23.0128 15.163H19.0708V12.5675C19.0659 11.5137 19.6465 10.3672 21.1735 10.3672Z" fill="white"/>
</svg>
